<svg width="100" height="44" viewBox="0 0 100 44" fill="none" xmlns="http://www.w3.org/2000/svg">
<path fill-rule="evenodd" clip-rule="evenodd" d="M39.6838 28.8615C39.6838 26.9935 39.882 25.9417 40.6648 24.364C41.4339 22.817 42.6303 21.5023 44.0728 20.5802C46.5647 18.9854 50.8819 18.5005 53.5721 19.7094C53.8729 19.846 54.0814 19.9245 54.3719 20.0748C55.3769 20.587 56.3237 21.3213 57.1065 22.134C60.0941 25.2348 60.2547 30.8149 57.715 34.2128C56.6861 35.5925 55.2504 36.6921 53.6541 37.3443C52.4748 37.8258 50.8956 38.2083 49.624 38.1708C49.2412 38.1605 47.8602 38.0034 47.4808 37.9146C45.2042 37.3887 44.3086 36.7604 42.7465 35.4559C42.2919 35.0734 41.9877 34.708 41.5911 34.2128C40.5212 32.8775 39.6803 30.7534 39.6803 28.8649L39.6838 28.8615ZM59.8992 17.2916C59.5266 17.0423 59.1233 16.5915 58.3644 16.0861C57.8209 15.7241 57.2159 15.3894 56.5904 15.1197C50.646 12.5653 44.7872 12.9648 39.6838 16.9501C39.2018 17.3257 38.6754 17.8004 38.2549 18.2614C38.0088 18.5346 37.8482 18.6781 37.6055 18.982C28.5096 30.2719 37.9507 46.2847 52.9841 43.3137C55.6469 42.7878 57.4244 41.8316 59.3489 40.09V42.4873H65.1052V0.107422H59.8958V17.2916H59.8992Z" fill="black"/>
<path fill-rule="evenodd" clip-rule="evenodd" d="M19.0581 39.3353C16.6517 39.3353 14.2384 39.0723 12.9292 36.9004C11.8457 35.1075 12.7857 32.8127 14.3717 31.7745C15.2263 31.2145 16.1082 31.1086 17.2772 30.9139C20.7536 30.3368 23.4301 29.9168 26.8039 28.9298C26.8039 32.5736 26.8585 34.2367 25.2383 36.4018C23.8505 38.2595 21.3825 39.3353 19.0615 39.3353H19.0581ZM7.20369 22.4243L12.8574 23.2951C13.3565 23.3156 12.8164 22.9195 13.7154 21.1915C15.281 18.1863 20.5929 17.1277 23.6625 18.241C26.9543 19.4328 26.6398 21.2086 27.0124 24.1386C25.2554 25.0675 21.8269 25.3134 19.6324 25.5968C19.4 25.6275 18.9863 25.6412 18.6924 25.6856L16.9081 25.8905C14.4743 26.2764 12.96 26.8262 10.9296 27.8609C10.4647 28.0966 10.1331 28.3459 9.71609 28.6327C8.30436 29.6026 6.64652 31.5286 6.42433 33.2839L6.25 35.0939C6.25 36.4701 6.62942 38.0581 7.15241 38.9152C7.76086 39.9056 8.45134 40.7491 9.3435 41.4526C9.80838 41.818 10.1776 42.098 10.7279 42.3951C15.2297 44.8436 22.4319 44.1333 26.4449 40.8925L27.3576 40.1617C27.4772 40.4076 27.573 40.7764 27.6755 41.0769L28.3284 43.0269C28.4138 43.2352 28.4275 43.2352 28.7215 43.2488C30.0956 43.3103 33.0797 43.242 34.6214 43.242C34.4573 42.5385 33.3976 41.7155 32.9567 39.4958C31.6748 33.0585 34.3035 20.3241 30.5605 16.1476C29.8666 15.3724 30.2631 15.7753 29.5692 15.1538C26.6569 12.555 18.9522 12.5175 15.3049 13.7434C12.7959 14.5869 10.2117 16.1271 8.74531 18.3468C7.93177 19.5762 7.21052 20.8466 7.21052 22.4277L7.20369 22.4243Z" fill="black"/>
<path fill-rule="evenodd" clip-rule="evenodd" d="M67.0262 42.4839H93.75V35.1588H74.2216V0.312321C74.2216 0.155232 74.1738 0.107422 74.0165 0.107422H67.0262V42.4839Z" fill="black"/>
</svg>
