<?xml version="1.0" encoding="UTF-8"?>
<svg id="Layer_1" xmlns="http://www.w3.org/2000/svg" version="1.1" viewBox="0 0 120 41.6">
  <!-- Generator: Adobe Illustrator 29.3.1, SVG Export Plug-In . SVG Version: 2.1.0 Build 151)  -->
  <defs>
    <style>
      .st0 {
        fill: #193f77;
        fill-rule: evenodd;
      }
    </style>
  </defs>
  <path class="st0" d="M5.86,38.57h10.03v-14.25c0-2.74.86-4.72,3.4-4.72,3.04,0,3.29,2.23,3.29,4.72v14.25h10.04v-14.25c0-2.74.86-4.72,3.39-4.72,3.04,0,3.3,2.23,3.3,4.72v14.25h10.04v-18.05c0-4.26-2.28-8.93-9.02-8.93s-8.56,3.8-8.97,4.11c-1.21-2.64-4.26-4.11-7.09-4.11-3.65,0-6.59,1.11-8.61,4.16h-.1v-3.5H5.86v26.32Z"/>
  <path class="st0" d="M77.05,21.89c0-5.07.1-10.3-12.47-10.3-6.23,0-13.23,1.22-13.53,8.62h9.33c.05-1.12.65-2.69,3.75-2.69,1.62,0,3.29.66,3.29,2.43,0,1.67-1.36,2.08-2.73,2.33-5.12.97-14.85.66-14.85,8.98,0,5.53,4.21,7.96,9.27,7.96,3.24,0,6.33-.71,8.46-3.15h.1c-.05.71.1,1.77.36,2.48h10.24c-1.11-1.67-1.22-3.9-1.22-5.88v-10.8ZM67.42,29.19c-.15,2.74-1.92,4.11-4.2,4.11-1.82,0-3.14-1.22-3.14-2.43,0-1.77,1.16-2.33,3.39-2.84,1.37-.3,2.74-.66,3.95-1.27v2.43Z"/>
  <polygon class="st0" points="104.99 12.25 94.76 12.25 90.6 28.28 90.5 28.28 86.39 12.25 75.8 12.25 84.42 38.57 96.27 38.57 104.99 12.25"/>
  <path class="st0" d="M114.14,2.36h-10.03v7.05h10.03V2.36ZM104.1,38.57h10.03V12.25h-10.03v26.32Z"/>
</svg>