<?xml version="1.0" encoding="utf-8"?>
<!-- Generator: Adobe Illustrator 24.0.3, SVG Export Plug-In . SVG Version: 6.00 Build 0)  -->
<svg version="1.1" xmlns="http://www.w3.org/2000/svg" xmlns:xlink="http://www.w3.org/1999/xlink" x="0px" y="0px"
	 viewBox="0 0 170 35" style="enable-background:new 0 0 170 35;" xml:space="preserve">
<style type="text/css">
	.st0{fill-rule:evenodd;clip-rule:evenodd;fill:#100F0C;}
	.st1{fill:#100F0C;}
	.st2{fill-rule:evenodd;clip-rule:evenodd;fill:#FFFFFF;}
	.st3{fill:#FFFFFF;}
</style>
<g id="Layer_1">
	<g id="Group_4029" transform="translate(-135.001 -22.999)">
		<path id="Path_1" class="st0" d="M137.4,38.5l13-13.1c1.3-1.3,3.5-1.3,4.8,0c0,0,0,0,0,0l12.1,12.3c1.3,1.3,1.3,3.5,0,4.9
			l-13,13.1c-1.3,1.3-3.5,1.3-4.8,0c0,0,0,0,0,0l-12.1-12.3C136.3,42.1,136.6,40,137.4,38.5z"/>
		<path id="Path_2" class="st1" d="M151.9,58c-1.3,0-2.5-0.5-3.4-1.4l-12.1-12.2c-1.9-1.9-1.9-4.9,0-6.8l13-13.1
			c1.8-1.9,4.9-1.9,6.7,0c0,0,0,0,0,0l12.1,12.2c1.9,1.9,1.9,4.9,0,6.8l-13,13.1C154.4,57.5,153.2,58,151.9,58z M138.4,39.5
			c-0.8,0.8-0.8,2.1,0,2.9l12.1,12.2c0.8,0.8,2,0.8,2.8,0c0,0,0,0,0,0l13-13.1c0.8-0.8,0.8-2.1,0-2.9l-12.1-12.2
			c-0.8-0.8-2-0.8-2.8,0c0,0,0,0,0,0L138.4,39.5z"/>
		<path id="Path_3" class="st2" d="M137.4,38.5l13-13.1c1.3-1.3,3.5-1.3,4.8,0c0,0,0,0,0,0l12.1,12.3c1.3,1.3,1.3,3.5,0,4.9
			l-13,13.1c-1.3,1.3-3.5,1.3-4.8,0c0,0,0,0,0,0l-12.1-12.3C136.3,42.1,136.6,40,137.4,38.5z"/>
		<path id="Path_4" class="st3" d="M151.9,56.7c-0.9,0-1.8-0.4-2.5-1l-12.1-12.3c-1.4-1.4-1.4-3.6,0-5l13-13.1
			c1.3-1.4,3.5-1.4,4.9,0c0,0,0,0,0,0l12.1,12.3c1.4,1.4,1.4,3.6,0,5l-13,13.1C153.8,56.3,152.9,56.7,151.9,56.7z M137.5,38.6
			c-1.3,1.3-1.3,3.4,0,4.7l12.1,12.3c1.3,1.3,3.4,1.3,4.6,0c0,0,0,0,0,0l13-13.1c1.3-1.3,1.3-3.4,0-4.7l-12.1-12.3
			c-1.3-1.3-3.4-1.3-4.6,0c0,0,0,0,0,0L137.5,38.6z"/>
		<path id="Path_5" class="st0" d="M138.5,39.1L151,26.5c0.9-0.9,2.3-0.9,3.2,0c0,0,0,0,0,0l12.1,12.2c0.9,0.9,0.9,2.3,0,3.2
			l-12.5,12.6c-0.9,0.9-2.3,0.9-3.2,0c0,0,0,0,0,0l-12.1-12.2C138,41.6,138.5,40.2,138.5,39.1z"/>
		<path id="Path_6" class="st1" d="M152.1,55.3c-0.6,0-1.2-0.3-1.7-0.7l-12.1-12.2c-0.9-0.9-0.9-2.4,0-3.4l12.5-12.6
			c0.9-0.9,2.4-0.9,3.3,0c0,0,0,0,0,0l12.1,12.2c0.9,0.9,0.9,2.4,0,3.4l-12.5,12.6C153.4,55,152.8,55.3,152.1,55.3z M152.6,25.9
			c-0.6,0-1.1,0.2-1.5,0.6l-12.5,12.6c-0.8,0.9-0.8,2.2,0,3.1l12.1,12.2c0.8,0.8,2.2,0.9,3.1,0c0,0,0,0,0,0l12.5-12.6
			c0.8-0.9,0.8-2.2,0-3.1l-12.1-12.2C153.7,26.1,153.2,25.9,152.6,25.9z"/>
		<path id="Path_8" class="st3" d="M152.1,51.1c-0.4,0-0.8-0.2-1.1-0.4l-8.9-8.9c-0.2-0.3-0.4-0.6-0.4-0.9c0-0.4,0.1-0.7,0.4-0.9
			c0.5-0.5,1.4-0.5,1.9,0l5.8,5.8l-2.6-9.7c-0.2-0.5,0-1,0.3-1.3c0.3-0.3,0.7-0.4,1.1-0.4c0.4,0,0.7,0.2,0.9,0.5l0,0l3.9,14.3
			c0.1,0.5,0,1.1-0.3,1.5C152.8,50.9,152.5,51.1,152.1,51.1z M143.1,39.7c-0.3,0-0.6,0.1-0.8,0.3c-0.2,0.2-0.3,0.5-0.3,0.8
			c0,0.3,0.1,0.6,0.3,0.8l8.9,8.9c0.5,0.5,1.4,0.5,1.9,0c0.3-0.4,0.4-0.9,0.3-1.3l-3.9-14.3c-0.2-0.3-0.4-0.4-0.8-0.4
			c-0.3,0-0.7,0.1-0.9,0.3c-0.3,0.3-0.4,0.8-0.3,1.2l2.7,10.1l-0.2,0.1l-6-6.1C143.6,39.8,143.4,39.7,143.1,39.7L143.1,39.7z"/>
		<path id="Path_9" class="st2" d="M151.3,31.9c-0.1-0.5,0-1,0.3-1.4c0.6-0.6,1.4-0.6,2,0l8.9,8.9c0.5,0.5,0.5,1.3,0,1.8
			c-0.5,0.5-1.3,0.5-1.7,0c0,0,0,0,0,0l-6-6.1l2.7,10c0.2,0.6-0.1,1.3-0.8,1.6c-0.5,0.2-1.1,0-1.4-0.4L151.3,31.9z"/>
		<path id="Path_10" class="st3" d="M156.2,46.8c0,0-0.1,0-0.1,0c-0.4,0-0.7-0.2-0.9-0.5l0,0l-3.9-14.3c-0.1-0.5,0-1.1,0.3-1.5
			c0.6-0.6,1.5-0.6,2.1,0c0,0,0,0,0,0l8.9,8.9c0.5,0.5,0.5,1.4,0,1.9c-0.5,0.5-1.3,0.5-1.9,0l-5.8-5.8l2.6,9.7c0.2,0.5,0,1-0.3,1.3
			C156.9,46.6,156.6,46.8,156.2,46.8z M155.3,46.1c0.2,0.3,0.5,0.4,0.8,0.4c0.3,0,0.7-0.1,0.9-0.3c0.3-0.3,0.4-0.8,0.3-1.2L154.6,35
			l0.2-0.1l6,6.1c0.5,0.4,1.2,0.4,1.6,0c0.4-0.4,0.4-1.1,0-1.6l-8.9-8.9c-0.5-0.5-1.4-0.5-1.9,0c-0.3,0.4-0.4,0.9-0.3,1.3"/>
		<path id="Path_11" class="st1" d="M192.1,53.8c-2.3,0-4.2-1.9-4.2-4.2l-0.1-16.5c0-2.2,1.8-4,3.9-4s4,1.8,4,3.9v2.6l2.5-4.3
			c0.7-1.3,2-2.1,3.5-2.1c1.2,0,2.3,0.5,3.1,1.5c0.7,0.8,1,1.9,0.8,3v0c0,0.3-0.1,0.6-0.3,0.8l-3.3,5.9l4.4,7.7
			c0.1,0.2,0.2,0.5,0.3,0.8l0,0c0.2,1.1-0.1,2.2-0.8,3c-0.7,0.9-1.9,1.5-3.1,1.5c-1.5,0-2.8-0.8-3.5-2.1l-1.9-3.2l-1.9,3.2
			c0,0.1-0.1,0.1-0.1,0.2c-0.7,1.1-1.9,1.8-3.2,2C192.4,53.8,192.2,53.8,192.1,53.8L192.1,53.8z"/>
		<path id="Path_12" class="st1" d="M207.9,53.8L207.9,53.8c-2.3,0-4.2-1.9-4.2-4.2l-0.1-16.5c0-2.2,1.8-4,3.9-4s4,1.8,4,3.9v2.6
			l2.5-4.3c0.7-1.3,2-2.1,3.5-2.1c1.2,0,2.3,0.5,3.1,1.5c0.7,0.9,1,2,0.8,3.1l0,0.1c0,0.2-0.1,0.5-0.2,0.7l0,0l-3.2,5.9l4.4,7.8
			c0.1,0.2,0.2,0.5,0.3,0.8l0,0c0.2,1.1-0.1,2.2-0.8,3l0,0c-0.8,0.9-1.9,1.4-3.1,1.5c-1.5,0-2.8-0.8-3.5-2.1l-1.9-3.2l-1.9,3.2
			c0,0.1-0.1,0.1-0.1,0.2c-0.7,1.1-1.9,1.9-3.2,2C208.1,53.8,208,53.8,207.9,53.8z M208.4,49.6L208.4,49.6z M208.4,46.8v0.7l0.3-0.6
			c-0.1,0-0.1,0-0.2,0C208.5,46.8,208.5,46.8,208.4,46.8z M216.1,32.5L216.1,32.5z"/>
		<path id="Path_13" class="st1" d="M227.6,54c-5.2,0-9.2-5.5-9.2-12.5s4-12.5,9.2-12.5s9.2,5.5,9.2,12.5S232.7,54,227.6,54z
			 M227.5,36.8c-1.7,2.9-1.7,6.5,0,9.3C229.2,43.2,229.2,39.7,227.5,36.8z"/>
		<path id="Path_14" class="st1" d="M286.9,53.7c-2.2,0-3.9-1.8-4-3.9v-2.6l-2.5,4.3c-0.7,1.4-2,2.2-3.6,2.2h-0.1
			c-2.2,0-3.9-1.8-3.9-3.9v-2.6l-2.5,4.3c-0.7,1.3-2,2.1-3.5,2.1c-1.2,0-2.3-0.5-3-1.4c0,0-0.1-0.1-0.1-0.1c-0.7-0.8-0.9-1.9-0.8-3
			l0-0.1c0-0.3,0.1-0.5,0.3-0.7l9.6-16.9c0-0.1,0.1-0.1,0.1-0.2c0.7-1.1,1.8-1.8,3.1-2l0,0c0.1,0,0.2,0,0.3,0h0
			c2.3,0,4.1,1.9,4.1,4.2v2l2.3-4c0-0.1,0.1-0.1,0.1-0.2c0.7-1.1,1.8-1.9,3.1-2h0c0.1,0,0.2,0,0.3,0h0c2.3,0,4.1,1.9,4.1,4.2
			l0.1,16.5C290.8,51.9,289.1,53.7,286.9,53.7z"/>
		<path id="Path_15" class="st1" d="M238.2,53.7c-2.2,0-3.9-1.8-4-4V33.1c0-2.2,1.7-3.9,3.9-3.9l6.8,0c4.5,0.1,8.1,3.9,8,8.4
			c0,2.7-1.3,5.2-3.6,6.7l2.6,3c0.1,0.1,0.2,0.2,0.2,0.3c0.6,0.9,0.7,2,0.4,3.1c-0.2,1-0.9,1.8-1.7,2.3l-0.1,0
			c-1.8,1-4.1,0.5-5.2-1.2l-3.5-3.8v1.7C242.1,51.9,240.3,53.7,238.2,53.7z M242.1,38.1c0.2,0,0.4,0,0.6,0h0.1l0.1,0
			c0.1,0,0.3,0,0.5,0h0c0.5,0,1-0.1,1.5-0.2c0-0.1,0-0.1,0-0.2c0-0.4-0.2-0.7-0.3-0.7H242L242.1,38.1z"/>
		<path id="Path_16" class="st1" d="M168,53.9c-2.3,0-4.2-1.9-4.2-4.2l-0.1-16.5c0-2.2,1.8-3.9,4-3.9c2.1,0,3.9,1.7,3.9,3.9v2.7
			l2.5-4.4c0.7-1.3,2-2.1,3.5-2.1c1.2,0,2.3,0.6,3.1,1.5c0.7,0.9,1,2,0.8,3.1l0,0c0,0.3-0.1,0.5-0.3,0.7l-9.6,16.9
			c0,0.1-0.1,0.1-0.1,0.2c-0.7,1.1-1.8,1.8-3.1,2h0C168.3,53.8,168.2,53.9,168,53.9L168,53.9z"/>
		<path id="Path_17" class="st1" d="M185.8,53.8c-2.2,0-3.9-1.8-3.9-3.9v-2.8l-2.5,4.5c-0.7,1.3-2,2.1-3.5,2.1
			c-1.2,0-2.3-0.6-3.1-1.5c-0.7-0.8-1-1.9-0.8-3l0,0c0-0.3,0.1-0.6,0.3-0.8l9.6-16.9c0-0.1,0.1-0.1,0.1-0.2c0.7-1.1,1.8-1.8,3.1-2
			l0,0c0.1,0,0.2,0,0.3,0h0c2.3,0,4.1,1.9,4.1,4.2l0,16.5C189.8,52.1,188,53.8,185.8,53.8z"/>
		<path id="Path_18" class="st1" d="M262.8,53.7c-2.2,0-3.9-1.8-3.9-3.9V47l-2.5,4.5c-0.7,1.3-2,2.1-3.5,2.1c-1.2,0-2.3-0.5-3.1-1.5
			c-0.7-0.8-1-2-0.8-3.1l0,0c0-0.3,0.1-0.5,0.3-0.8l9.6-16.9c0-0.1,0.1-0.1,0.1-0.2c0.7-1.1,1.8-1.9,3.1-2.1l0,0c0.1,0,0.2,0,0.3,0
			h0c2.3,0,4.1,1.9,4.1,4.2l0.1,16.5C266.7,51.9,265,53.7,262.8,53.7C262.8,53.7,262.8,53.7,262.8,53.7z"/>
		<path id="Path_19" class="st1" d="M301,53.6c-2.2,0-3.9-1.8-3.9-3.9v-2.8l-2.5,4.4c-0.7,1.3-2,2.1-3.5,2.1c-1.2,0-2.3-0.6-3.1-1.5
			c-0.7-0.9-1-2-0.8-3c0,0,0-0.1,0-0.1c0-0.3,0.1-0.5,0.3-0.7l9.6-16.9c0-0.1,0.1-0.1,0.1-0.2c0.7-1.1,1.8-1.8,3.1-2l0,0
			c0.1,0,0.2,0,0.3,0h0c2.3,0,4.1,1.9,4.1,4.2l0.1,16.5C305,51.9,303.2,53.6,301,53.6z"/>
		<path id="Path_28_1_" class="st3" d="M289.6,49.2L289.6,49.2c-0.1,0.5,0,0.9,0.3,1.2c0.3,0.4,0.8,0.6,1.2,0.6
			c0.6,0,1.1-0.3,1.4-0.9l6.9-12.5v11.9c0,0.9,0.7,1.6,1.6,1.6c0.9,0,1.6-0.7,1.6-1.6l-0.1-16.5c0-1-0.8-1.8-1.8-1.8h0h0
			c-0.6,0.1-1.2,0.5-1.5,1"/>
		<path id="Path_7" class="st2" d="M153.4,49.2c0.1,0.5,0,1-0.3,1.4c-0.6,0.6-1.4,0.6-2,0l-8.9-8.9c-0.5-0.5-0.5-1.3,0-1.8
			c0.5-0.5,1.3-0.5,1.7,0c0,0,0,0,0,0l6,6.1l-2.7-10c-0.1-0.4,0-0.9,0.3-1.3c0.5-0.5,1.3-0.5,1.7,0c0,0,0.1,0.1,0.1,0.2L153.4,49.2z
			"/>
		<path class="st3" d="M151.4,31.9l3.9,14.3"/>
		<path id="Path_20" class="st3" d="M204.5,49.4l-5.1-8.9l3.9-7.1l0,0c0.1-0.4-0.1-0.8-0.3-1.1c-0.3-0.4-0.8-0.6-1.2-0.6
			c-0.6,0-1.1,0.3-1.4,0.9l-6.9,12V33c0-0.9-0.7-1.6-1.6-1.6c-0.9,0-1.6,0.7-1.6,1.6l0.1,16.5c0,1,0.8,1.8,1.8,1.8h0h0
			c0.6-0.1,1.2-0.5,1.5-1l3.9-6.8l3.9,6.8c0.3,0.5,0.8,0.9,1.4,0.9c0.5,0,0.9-0.2,1.2-0.6C204.5,50.2,204.6,49.8,204.5,49.4
			L204.5,49.4z"/>
		<path id="Path_21" class="st3" d="M216.1,32.4l-6.9,12l0-11.4c0-0.9-0.7-1.6-1.6-1.6c-0.9,0-1.6,0.7-1.6,1.6l0.1,16.5
			c0,1,0.8,1.8,1.8,1.8h0h0c0.6-0.1,1.2-0.5,1.5-1l3.9-6.8l3.9,6.8c0.3,0.5,0.8,0.9,1.4,0.9c0.5,0,0.9-0.2,1.2-0.6
			c0.3-0.3,0.4-0.7,0.3-1.1l0,0l-5.1-8.9l3.9-7l0,0l0,0c0.1-0.4,0-0.8-0.3-1.2c-0.3-0.4-0.8-0.6-1.2-0.6
			C216.9,31.6,216.4,31.9,216.1,32.4"/>
		<path id="Path_22" class="st3" d="M227.5,31.2c-3.8,0-6.8,4.6-6.8,10.2s3.1,10.2,6.9,10.2s6.8-4.6,6.8-10.2S231.3,31.2,227.5,31.2
			z M227.6,48.5c-2,0-3.6-3.2-3.6-7.1s1.6-7.1,3.6-7.1s3.6,3.2,3.6,7.1S229.6,48.5,227.6,48.5L227.6,48.5z"/>
		<path id="Path_23" class="st3" d="M286.7,31.3L286.7,31.3L286.7,31.3c-0.7,0.1-1.3,0.5-1.6,1l-6.7,11.6l0-10.8
			c0-1-0.8-1.8-1.8-1.8h0h0c-0.6,0.1-1.2,0.5-1.5,1l-9.6,16.9l0,0l0,0c-0.1,0.4,0,0.8,0.3,1.2c0.3,0.4,0.8,0.6,1.3,0.6
			c0.6,0,1.1-0.3,1.4-0.9l6.9-12v11.4c0,0.9,0.7,1.6,1.6,1.6h0.1c0.6,0,1.2-0.4,1.5-1l6.9-12l0,11.4c0,0.9,0.7,1.6,1.6,1.6
			c0,0,0,0,0,0c0.9,0,1.6-0.7,1.6-1.6l-0.1-16.5C288.5,32.1,287.7,31.3,286.7,31.3z"/>
		<path id="Path_24" class="st3" d="M245.3,43L246,43l0,0c2.6-0.5,4.5-2.8,4.5-5.5c0.1-3.2-2.4-5.9-5.6-6.1l-6.8,0
			c-0.8,0-1.5,0.7-1.5,1.5v16.6c0,0.9,0.7,1.6,1.6,1.6c0.9,0,1.6-0.7,1.6-1.6l0-15.1l4.9,0c1.5,0.1,2.7,1.4,2.7,2.9c0,0,0,0,0,0
			c0.1,2.4-1.8,2.7-3.8,2.8c-0.2,0-0.4,0-0.5,0c0,0-0.1,0-0.1,0s-0.1,0-0.1,0c-0.7,0-2.2,0.1-2.3,1.5c0.1,0.7,0.3,1.3,0.8,1.8
			l6.2,6.7c0.3,0.5,0.8,0.8,1.4,0.9c0.3,0,0.6-0.1,0.8-0.2c0.3-0.2,0.6-0.5,0.6-0.9c0.1-0.4,0-0.9-0.2-1.3L245.3,43z"/>
		<path id="Path_25" class="st3" d="M176.3,32.5l-6.9,12.3"/>
		<path id="Path_26" class="st3" d="M185.5,31.5L185.5,31.5L185.5,31.5c-0.7,0.1-1.3,0.5-1.6,1l-9.6,16.9l0,0l0,0
			c-0.1,0.4,0.1,0.8,0.3,1.1c0.3,0.4,0.8,0.6,1.2,0.6c0.6,0,1.1-0.3,1.4-0.9l6.9-12.5v11.9c0,0.9,0.7,1.6,1.6,1.6
			c0.9,0,1.6-0.7,1.6-1.6l0-16.5C187.3,32.3,186.5,31.5,185.5,31.5z"/>
		<path id="Path_27" class="st3" d="M262.5,31.3L262.5,31.3L262.5,31.3c-0.7,0.1-1.3,0.5-1.6,1l-9.6,16.9l0,0l0,0
			c-0.1,0.4,0,0.8,0.3,1.1c0.3,0.4,0.8,0.6,1.3,0.6c0.6,0,1.1-0.3,1.4-0.9l6.9-12.5v11.9c0,0.9,0.7,1.6,1.6,1.6
			c0.9,0,1.6-0.7,1.6-1.6l-0.1-16.5C264.3,32.2,263.5,31.3,262.5,31.3z"/>
		<path id="Path_28" class="st3" d="M299.2,32.3l-9.6,16.9"/>
	</g>
</g>
<g id="Layer_2">
	<path id="Path_25_1_" class="st3" d="M34.3,21.8l0-11.7c0-0.9-0.7-1.6-1.6-1.6c-0.9,0-1.6,0.7-1.6,1.6l0.1,16.5
		c0,1,0.8,1.8,1.8,1.8h0h0c0.6-0.1,1.2-0.5,1.5-1l9.6-16.9l0,0l0,0c0.1-0.4,0-0.8-0.3-1.1c-0.3-0.4-0.8-0.6-1.3-0.6
		c-0.6,0-1.1,0.3-1.4,0.9"/>
</g>
</svg>
