<?xml version="1.0" encoding="UTF-8"?>
<svg id="Layer_1" xmlns="http://www.w3.org/2000/svg" version="1.1" viewBox="0 0 510 76">
  <!-- Generator: Adobe Illustrator 29.2.1, SVG Export Plug-In . SVG Version: 2.1.0 Build 116)  -->
  <path d="M5.5,14v48.8c0,1.3.9,2.1,2.1,2.1h15.7v-9.5h-8.4V21.5h8.4v-9.5H7.4c-1.2,0-1.9.7-1.9,2M58.3,14v48.8c0,1.3-.9,2.1-2.1,2.1h-15.7v-9.5h8.4V21.5h-8.4v-9.5h15.9c1.2,0,1.9.7,1.9,2" fill="#4197cb"/>
  <path d="M500.2,37.9c0-6.8-3.1-14.5-11.2-14.5s-11.5,7.2-11.5,14.5,3.6,13.9,11.5,13.9,11.2-6.8,11.2-13.9M504.5,20.9v32c0,10.5-4.2,16.8-15.5,16.8s-13.9-3.2-14.5-10.5h4.3c.9,5.1,5.5,7,10.2,7,7.9,0,11.2-4.6,11.2-13.2v-4.7h-.1c-2,4.3-6,7.2-11.1,7.2-11.2,0-15.8-7.9-15.8-17.9s5.7-17.6,15.8-17.6,9.4,3.2,11.1,7h.1v-6h4.3ZM454.2,19.9c-4.9,0-9.5,2.8-11.2,7h-.1v-6h-4.3v34.9h4.3v-20.3c.2-6.8,4.1-12,11-12s8.9,4.6,8.9,10.5v21.8h4.3v-22.4c0-8.3-3-13.5-12.8-13.5M426.3,55.8h4.3V20.9h-4.3v34.9ZM426.3,17.4h4.3v-6.8h-4.3v6.8ZM413.9,38.3c0-7.2-3.3-14.9-12.2-14.9s-11.4,7.6-11.4,14.9,3.3,14.9,11.4,14.9,12.2-7.6,12.2-14.9M413.9,10.6h4.3v45.2h-3.9v-6.6h-.1c-1.8,4.6-7.4,7.6-12.4,7.6-10.6,0-15.7-8.5-15.7-18.5s5.1-18.5,15.7-18.5,10.3,2.6,12.1,7.6h.1V10.6ZM375,38.3c0-7.2-3.2-14.9-12.2-14.9s-11.4,7.6-11.4,14.9,3.3,14.9,11.4,14.9,12.2-7.6,12.2-14.9M375,10.6h4.3v45.2h-3.9v-6.6h-.1c-1.8,4.6-7.4,7.6-12.4,7.6-10.6,0-15.7-8.5-15.7-18.5s5.1-18.5,15.7-18.5,10.3,2.6,12.1,7.6h.1V10.6ZM338.6,35.9c-.2-6.4-4.3-12.4-11.1-12.4s-10.7,6.1-11.5,12.4h22.6ZM342.9,39.5h-26.8c0,6.2,3.4,13.7,11.5,13.7s9.6-3.6,11-8.9h4.3c-1.8,7.9-6.4,12.5-15.2,12.5s-15.8-8.5-15.8-18.5,4.7-18.5,15.8-18.5,15.7,9.8,15.3,19.6M302.6,38.3c0-7.2-3.3-14.9-11.4-14.9s-12.2,7.6-12.2,14.9,3.2,14.9,12.2,14.9,11.4-7.6,11.4-14.9M306.9,38.3c0,9.9-5.1,18.5-15.7,18.5s-10.5-2.8-12.4-7.6h-.1v6.6h-3.9V10.6h4.3v16.9h.1c1.8-5,7-7.6,12.1-7.6,10.6,0,15.7,8.5,15.7,18.5M172.4,10.6h-13.3v10.3h-5.8v8.2h5.8v17.1c0,9.5,7.5,10,11.7,10s6,0,9.3-.4v-9.9c-1.6.1-2.6.2-3.6.2-3.4,0-4.1-1.1-4.1-4.3v-12.6h7.7v-8.2h-7.7v-10.3ZM250.5,34.6c-4.4-1.5-9.5-1.7-11.7-2.7-.7-.3-1.6-.4-1.6-1.8,0-2.3,1.6-2.7,4-2.7s2.8,0,3.6.7c.9.6.8,1.8.9,2.9h12.1c0-10.1-8.5-11-16.9-11s-16.4,1.3-16.4,11.1,4.1,9.2,14.2,10.9c6.2,1.1,7.3,1.7,7.3,3.7,0,2.4-2.3,2.7-4.5,2.7-1.6,0-3.3,0-4.3-.8-1-1-.8-2-.9-3.2h-12.7c0,11,5.8,12.3,17.4,12.3s17.7-2,17.7-12.3-3.9-8.3-8.3-9.7M206.7,40.8c-1,.2-3.6.6-5.2.8-3.5.5-5.1,1.5-4.8,3.9.1,1.3,1.8,2.7,4.8,2.3,2.7-.3,5.3-1.4,5.3-3.8v-3.2ZM219.4,33.7v22.1h-12.3v-3.2h-.1c-3.1,3.2-6.4,4.1-11.8,4.1s-11.7-3-11.7-10.5c0-12,12.9-10.6,19.6-11.9,2.8-.5,3.6-.9,3.6-3.1s-1.1-3.2-4.4-3.2c-4.3,0-4.9,1.5-5,3.5h-12.3c.4-9.8,6.4-11.4,17.9-11.4,16.6,0,16.5,4.6,16.5,13.6M137.4,40.8c-1,.2-3.6.6-5.3.8-3.5.5-5,1.5-4.8,3.9.1,1.3,1.8,2.7,4.8,2.3,2.7-.3,5.3-1.4,5.3-3.8v-3.2ZM150.2,33.7v22.1h-12.3v-3.2h-.1c-3.1,3.2-6.4,4.1-11.8,4.1s-11.7-3-11.7-10.5c0-12,12.9-10.6,19.6-11.9,2.8-.5,3.6-.9,3.6-3.1s-1.1-3.2-4.4-3.2c-4.3,0-4.9,1.5-5,3.5h-12.3c.4-9.8,6.4-11.4,17.9-11.4,16.6,0,16.5,4.6,16.5,13.6M100.5,20.9l-5.6,21.6h-.1l-5.6-21.6h-14.2l5.9,16c.7,2,5.9,16,6.2,17.6.4,2,0,4.1-1.6,4.8-.9.4-2.5.3-4,.3h-1.3v10.8h8.7c5.4,0,8.5,0,11.5-9.3.9-2.5,13.9-40.3,13.9-40.3h-13.7ZM231.7,59.7h18.9v10.8h-18.9v-10.8ZM265.7,9.6c0,.6-.4.8-.9.8h-1.6v-1.7h1.6c.5,0,.9.3.9.8M266.7,9.6c0-1.2-.9-1.8-1.9-1.8h-2.6v5.9h1v-2.3h1.1l1.2,2.3h1.2l-1.2-2.4c.8-.2,1.2-.8,1.2-1.7M268.8,10.9c0,2.6-2,4.5-4.5,4.5s-4.5-2-4.5-4.5,2-4.5,4.5-4.5,4.5,2,4.5,4.5M269.7,10.9c0-3.1-2.4-5.4-5.4-5.4s-5.4,2.3-5.4,5.4,2.3,5.4,5.4,5.4,5.4-2.3,5.4-5.4" fill="#131e29"/>
</svg>